<svg xmlns="http://www.w3.org/2000/svg" width="372.5" height="201.6" viewBox="0 0 98.557 53.346">
  <g transform="translate(-52.34 -90.118)">
    <g transform="matrix(2.69225 0 0 -2.69225 -533.185 1507.705)">
      <!-- Red Background Box -->
      <path d="m 253.602,507.22 h -35.625 v 18.834 h 35.625 z" fill="#e60013"/>
      <!-- White JGC Characters -->
      <path d="m 224.318,517.034 h -2.902 v -3.448 c 0,0 -0.137,-2.985 3.43,-2.985 h 1.6 c 0,0 3.426,-0.217 3.426,2.968 v 9.09 h -2.888 v -9.104 c 0,0 -0.087,-1.197 -1.346,-1.197 -1.256,0 -1.32,1.279 -1.32,1.279 z m 9.044,5.625 c -0.368,-0.057 -1.304,-0.213 -1.971,-1.047 -0.67,-0.836 -0.654,-1.369 -0.654,-2.308 v -5.767 c 0,0 -0.052,-1.181 0.836,-2.066 0.885,-0.885 1.977,-0.83 2.458,-0.87 0.482,-0.043 1.916,-0.038 2.426,0 0.511,0.035 1.463,-0.077 2.393,0.841 0.93,0.916 0.832,2.17 0.832,2.17 v 3.422 h -4.641 v -1.954 h 1.88 v -1.108 c 0,0 -0.021,-1.614 -1.621,-1.614 -1.598,0 -1.713,1.59 -1.713,1.769 v 5.038 c 0,0.54 0.263,1.764 1.594,1.764 1.169,0 1.596,-0.96 1.596,-1.764 v -1.432 h 2.891 v 1.571 c 0,0.548 0.038,1.435 -0.737,2.355 -0.681,0.809 -1.704,0.97 -1.966,1.018 -0.434,0.082 -2.979,0.082 -3.603,-0.018 m 9.755,0 c -0.366,-0.065 -1.333,-0.195 -2.001,-1.03 -0.67,-0.835 -0.623,-1.381 -0.623,-2.325 v -5.767 c 0,0 -0.051,-1.181 0.835,-2.066 0.885,-0.885 1.977,-0.83 2.459,-0.87 0.48,-0.043 1.718,-0.038 2.229,0 0.511,0.035 1.464,-0.077 2.394,0.841 0.929,0.916 0.832,2.17 0.832,2.17 v 2.219 l -2.891,-0.006 v -1.853 c 0,0 0.091,-1.614 -1.44,-1.614 -1.601,0 -1.567,1.59 -1.567,1.769 v 5.038 c 0,0.54 0.181,1.764 1.514,1.764 1.168,0 1.477,-0.96 1.477,-1.764 v -1.432 h 2.89 v 1.571 c 0,0.548 0.04,1.435 -0.735,2.355 -0.681,0.809 -1.716,0.949 -2.005,1 -0.365,0.067 -2.91,0.082 -3.368,0" fill="#ffffff"/>
    </g>
  </g>
</svg>
