<svg height="98.326042" viewBox="0 0 450 98.32604" width="450" xmlns="http://www.w3.org/2000/svg">
  <g fill="#0073bd">
    <path d="m18.550489 78.62713h-.0773v-78.62713h-18.473189v78.62713c0 12.75836 3.4443798 18.4861 18.473189 18.4861h27.296949v-18.4861zm0 0"/>
    <path d="m168.40002 54.69714-.142-16.66716c-26.47137-9.6623-40.76485.2708-40.90676 14.56442-.142 14.57729 7.04354 17.90555 17.93139 20.45982 7.75304 1.80605 7.28865 5.5987 7.28865 5.5987s.8385 5.18594-6.72106 5.18594c-7.57246 0-12.19076-2.08987-17.80235-6.86296l.077 16.46076c3.2251 2.37365 9.4559 4.69568 18.2797 4.69568 9.6623 0 22.39487-2.95416 22.97538-19.05369.4257-11.76505-7.76596-18.3442-16.38335-19.33751-12.19074-1.39322-9.81709-13.31308-.1549-11.90696 0 0 10.51371 1.39325 15.55773 6.86296"/>
    <path d="m253.16767 97.39705h16.13824v-36.08209c0-6.15342 5.86964-10.56529 14.08711-10.56529v-15.82864c-27.28408 0-30.22535 19.64712-30.22535 26.11015zm0 0"/>
    <path d="m315.19216 72.73173v-21.46605h12.03598v-16.12536h-12.03598v-26.08432h-15.77701v26.08432h-5.2504v16.12536h5.2504l-.142 25.36191.077-.026c.026 15.39003 14.8482 22.20137 28.81923 20.61464v-14.82241c-6.20501 0-12.97772-1.44483-12.97772-9.6623"/>
    <path d="m450 50.76255v-15.54482c-25.61996-2.02534-39.16524 12.65516-39.16524 31.94108 0 20.73072 14.6805 34.26312 38.58476 30.52202v-14.6805c-13.2357 2.87675-22.44651-4.32158-22.44651-16.69296 0-12.38426 11.80378-18.43448 23.02699-15.54482"/>
    <path d="m84.058036 81.36201c-8.630279 0-15.622229-7.00487-15.622229-15.62224 0-8.63027 6.99195-15.62223 15.622229-15.62223 8.63028 0 15.62223 6.99196 15.62223 15.62223 0 8.61737-6.99195 15.62224-15.62223 15.62224m31.437944-15.62224c0-17.37666-14.07415-31.43795-31.437944-31.43795-17.363749 0-31.437948 14.06129-31.437948 31.43795 0 17.36376 14.074199 31.43796 31.437948 31.43796 5.61162 0 10.79752-1.58674 15.35133-4.15388v4.12809h16.060824v-29.98025h-.1159c.013-.4902.142-.9417.142-1.43192"/>
    <path d="m218.15634 61.14726h-21.06612c2.34783-11.93274 20.12442-13.37757 24.60079-4.55377.8901 1.75443 2.50267 4.55377-3.53467 4.55377m24.1751.2969c-2.52844-15.62223-15.69961-26.54878-31.97976-26.54878-17.84106 0-32.30227 13.27441-32.30227 31.11547s14.46121 32.31519 32.30227 32.31519c13.37758 0 24.84593-8.14009 29.76093-19.73744h-18.12488c-1.78023 5.89544-21.22094 9.0947-25.05233-6.52753h33.01178c5.00532 0 13.85491-1.47062 12.38426-10.61691"/>
    <path d="m376.61035 61.14726h-21.07903c2.36074-11.93274 20.1373-13.37757 24.62661-4.55377.8901 1.75443 2.50264 4.55377-3.54758 4.55377m24.1751.2969c-2.52844-15.62223-15.69961-26.54878-31.97976-26.54878-17.84106 0-32.30223 13.27441-32.30223 31.11547s14.46117 32.31519 32.30223 32.31519c13.37758 0 24.84593-8.14009 29.76093-19.73744h-18.12488c-1.76735 5.89544-21.2209 9.0947-25.0523-6.52753h33.01175c5.00532 0 13.85491-1.47062 12.38426-10.61691"/>
  </g>
</svg>
