<?xml version="1.0" encoding="UTF-8" standalone="no"?>
<!-- Created with Inkscape (http://www.inkscape.org/) -->

<svg
   xmlns:dc="http://purl.org/dc/elements/1.1/"
   xmlns:cc="http://creativecommons.org/ns#"
   xmlns:rdf="http://www.w3.org/1999/02/22-rdf-syntax-ns#"
   xmlns:svg="http://www.w3.org/2000/svg"
   xmlns="http://www.w3.org/2000/svg"
   xmlns:sodipodi="http://sodipodi.sourceforge.net/DTD/sodipodi-0.dtd"
   xmlns:inkscape="http://www.inkscape.org/namespaces/inkscape"
   width="305"
   height="60"
   id="svg3638"
   version="1.1"
   inkscape:version="0.48.2 r9819"
   sodipodi:docname="新規ドキュメント 3">
  <defs
     id="defs3640">
    <clipPath
       id="clipPath3019"
       clipPathUnits="userSpaceOnUse">
      <path
         inkscape:connector-curvature="0"
         id="path3021"
         d="m 56.479,756.764 227.126,0 0,63.126 -227.126,0 0,-63.126 z" />
    </clipPath>
  </defs>
  <sodipodi:namedview
     id="base"
     pagecolor="#ffffff"
     bordercolor="#666666"
     borderopacity="1.0"
     inkscape:pageopacity="0.0"
     inkscape:pageshadow="2"
     inkscape:zoom="0.98994949"
     inkscape:cx="116.52991"
     inkscape:cy="17.016285"
     inkscape:document-units="px"
     inkscape:current-layer="layer1"
     showgrid="false"
     inkscape:window-width="769"
     inkscape:window-height="435"
     inkscape:window-x="100"
     inkscape:window-y="100"
     inkscape:window-maximized="0" />
  <metadata
     id="metadata3643">
    <rdf:RDF>
      <cc:Work
         rdf:about="">
        <dc:format>image/svg+xml</dc:format>
        <dc:type
           rdf:resource="http://purl.org/dc/dcmitype/StillImage" />
        <dc:title></dc:title>
      </cc:Work>
    </rdf:RDF>
  </metadata>
  <g
     inkscape:label="レイヤー 1"
     inkscape:groupmode="layer"
     id="layer1"
     transform="translate(0,-992.3622)">
    <g
       transform="matrix(1.25,0,0,-1.25,-57.315854,2026.3178)"
       id="g3015">
      <g
         clip-path="url(#clipPath3019)"
         id="g3017">
        <g
           transform="translate(101.249,813.7606)"
           id="g3099">
          <path
             id="path3101"
             style="fill:#0e88d3;fill-opacity:1;fill-rule:nonzero;stroke:none"
             d="m 0,0 8.32,0 0,-27.45 6.462,0 0,27.45 8.319,0 0,5.448 L 0,5.448 0,0 z"
             inkscape:connector-curvature="0" />
        </g>
        <g
           transform="translate(172.9391,797.0508)"
           id="g3103">
          <path
             id="path3105"
             style="fill:#0e88d3;fill-opacity:1;fill-rule:nonzero;stroke:none"
             d="m 0,0 c 0,-4.209 -2.89,-6.135 -6.633,-6.137 -3.738,0 -6.629,1.928 -6.629,6.137 l 0,22.152 -6.463,0 0,-22.152 c 0,-8.558 5.789,-11.505 13.092,-11.505 7.315,0 13.094,2.947 13.094,11.505 l 0,22.152 L 0,22.152 0,0 z"
             inkscape:connector-curvature="0" />
        </g>
        <path
           id="path3107"
           style="fill:#0e88d3;fill-opacity:1;fill-rule:nonzero;stroke:none"
           d="m 210.266,786.315 6.465,0 0,32.888 -6.465,0 0,-32.888 z"
           inkscape:connector-curvature="0" />
        <path
           id="path3109"
           style="fill:#0e88d3;fill-opacity:1;fill-rule:nonzero;stroke:none"
           d="m 276.993,786.315 6.463,0 0,32.888 -6.463,0 0,-32.888 z"
           inkscape:connector-curvature="0" />
        <path
           id="path3111"
           style="fill:#0e88d3;fill-opacity:1;fill-rule:nonzero;stroke:none"
           d="m 92.755,786.31 6.459,0 0,32.889 -6.459,0 0,-32.889 z"
           inkscape:connector-curvature="0" />
        <g
           transform="translate(83.7906,819.1995)"
           id="g3113">
          <path
             id="path3115"
             style="fill:#0e88d3;fill-opacity:1;fill-rule:nonzero;stroke:none"
             d="M 0,0 -3.594,0 -10.58,-23.801 -17.566,0 l -3.601,0 -2.349,0 -3.595,0 0,-32.889 5.944,0 0,24.997 7.451,-24.997 0.47,0 5.333,0 0.464,0 7.449,24.997 0,-24.997 5.95,0 L 5.95,0 2.357,0 0,0 z"
             inkscape:connector-curvature="0" />
        </g>
        <g
           transform="translate(197.0458,791.4279)"
           id="g3117">
          <path
             id="path3119"
             style="fill:#0e88d3;fill-opacity:1;fill-rule:nonzero;stroke:none"
             d="m 0,0 -8.52,0 0,9.652 8.284,0 c 3.21,0 5.028,-2.224 5.028,-5.364 C 4.792,2.044 2.571,0 0,0 m -8.52,22.663 8.52,0 c 2.153,0 4.022,-1.711 4.022,-3.597 0,-2.637 -1.529,-4.499 -4.22,-4.499 l -8.322,0 0,8.096 z M 5.478,12.632 c 2.924,1.35 4.806,3.971 4.806,7.201 0,4.83 -3.736,7.942 -9.332,7.942 l -9.472,0 -6.466,0 0,-32.888 6.466,0 9.472,0 c 6.558,0 10.764,3.999 10.764,9.156 0,3.981 -2.475,7.154 -6.238,8.589"
             inkscape:connector-curvature="0" />
        </g>
        <g
           transform="translate(131.4671,810.622)"
           id="g3121">
          <path
             id="path3123"
             style="fill:#0e88d3;fill-opacity:1;fill-rule:nonzero;stroke:none"
             d="m 0,0 c 0,2.88 3.386,4.027 6.003,4.027 3.197,0 6.27,-1.555 6.27,-4.923 l 6.326,0 C 18.343,5.175 13.461,9.268 6.262,9.268 c -7.433,0 -12.858,-4.136 -12.858,-9.842 0,-6.618 5.469,-8.505 10.619,-9.716 4.604,-1.082 8.952,-1.587 8.952,-5.114 0,-3.091 -3.84,-4.344 -7.031,-4.344 -3.44,0 -6.512,1.956 -6.964,5.306 l -6.078,0 c -0.253,-6.842 6.648,-10.545 13.101,-10.545 8.886,0 13.808,4.9 13.808,10.094 C 19.811,-1.216 0,-7.802 0,0"
             inkscape:connector-curvature="0" />
        </g>
        <g
           transform="translate(225.9278,810.622)"
           id="g3125">
          <path
             id="path3127"
             style="fill:#0e88d3;fill-opacity:1;fill-rule:nonzero;stroke:none"
             d="m 0,0 c 0,2.88 3.386,4.027 6.012,4.027 3.195,0 6.264,-1.555 6.264,-4.923 l 6.32,0 C 18.345,5.175 13.464,9.268 6.262,9.268 -1.171,9.268 -6.59,5.132 -6.59,-0.574 c 0,-6.618 5.473,-8.505 10.619,-9.716 4.604,-1.082 8.949,-1.587 8.949,-5.114 0,-3.091 -3.837,-4.344 -7.032,-4.344 -3.433,0 -6.515,1.956 -6.962,5.306 l -6.073,0 c -0.26,-6.842 6.643,-10.545 13.101,-10.545 8.885,0 13.807,4.9 13.807,10.094 C 19.819,-1.216 0,-7.802 0,0"
             inkscape:connector-curvature="0" />
        </g>
        <g
           transform="translate(267.2754,806.7597)"
           id="g3129">
          <path
             id="path3131"
             style="fill:#0e88d3;fill-opacity:1;fill-rule:nonzero;stroke:none"
             d="m 0,0 -13.346,0 0,12.444 -6.471,0 0,-32.889 6.471,0 0,14.892 13.346,0 0,-14.892 6.466,0 0,32.889 L 0,12.444 0,0 z"
             inkscape:connector-curvature="0" />
        </g>
      </g>
    </g>
  </g>
</svg>
