<?xml version="1.0" encoding="UTF-8" standalone="no"?>
<!DOCTYPE svg PUBLIC "-//W3C//DTD SVG 1.1//EN" "http://www.w3.org/Graphics/SVG/1.1/DTD/svg11.dtd">
<!-- Created with Inkscape (http://www.inkscape.org/) by Marsupilami -->
<svg
   xmlns:svg="http://www.w3.org/2000/svg"
   xmlns="http://www.w3.org/2000/svg"
   id="svg2211"
   version="1.1"
   width="1024"
   height="251"
   viewBox="-1.10546895 -1.10546895 159.2071379 39.0599029">
  <defs
     id="defs2208" />
  <path
     id="path2180"
     d="m 48.1153,0.00363312 c -2.4296,0 -4.1501,0.60516 -5.2578,1.47655998 a 4.5268579,4.5268579 0 0 0 -1.8457,3.67383 5.2321025,5.2321025 0 0 0 0.9296,2.98242 c 0.901,1.27387 3.5123,2.6730099 5.4102,3.6367199 1.8019,0.90094 3.4853,1.64852 4.4785,2.83008 a 3.8769991,3.8769991 0 0 1 0.9961,2.76758 3.9693086,3.9693086 0 0 1 -1.5879,3.23632 6.110889,6.110889 0 0 1 -3.7324,1.1504 c -3.2973,0 -5.04,-0.93273 -6.0332,-4.76172 l -1.1074,0.2832 a 29.967357,29.967357 0 0 1 1.0195,4.58594 18.314205,18.314205 0 0 0 5.8047,1.07422 c 2.773,0 4.8218,-0.77547 6.1289,-1.95704 a 5.3908749,5.3908749 0 0 0 1.7422,-4.13476 5.9299624,5.9299624 0 0 0 -1.3067,-3.69336 c -1.3366,-1.51757 -3.1719,-2.23244 -5.6015,-3.4804699 -1.9607,-0.97479 -3.1423,-1.67772 -3.9473,-2.45312 a 3.7957667,3.7957667 0 0 1 -1.0605,-2.48828 2.9022107,2.9022107 0 0 1 1.1093,-2.36329 c 0.8604,-0.74955 2.1333,-1.18164 3.6915,-1.18164 3.6739,0 4.3542,1.10883 5.0078,4.30274 l 1.0742,-0.24805 c -0.2733,-1.4031 -0.5574,-3.07986 -0.7383,-4.35741998 a 13.779962,13.779962 0 0 0 -5.1738,-0.88086 z m 44.4082,0.46094 V 1.3649631 c 2.3299,0 2.5176,0.15521 2.5176,2.39648 V 19.236053 c 0,2.21543 -0.1877,2.36328 -2.5176,2.36328 v 0.9043 h 10.1386 c 3.2346,0 5.07,-0.739 6.2774,-1.93164 a 5.7748824,5.7748824 0 0 0 1.7441,-4.28516 4.7373236,4.7373236 0 0 0 -1.9941,-3.83008 c -1.333,-1.02648 -3.1391,-1.55441 -5.1699,-1.61718 v -0.0508 c 1.9569,-0.28062 3.265,-0.9020699 4.1992,-1.7402399 a 4.7520931,4.7520931 0 0 0 1.5527,-3.57812 4.3311618,4.3311618 0 0 0 -1.9863,-3.63672 c -1.68,-1.10771998 -3.5505,-1.36913998 -6.4121,-1.36913998 z m -12.9981,0.48633 a 4.8850188,4.8850188 0 0 0 -3.123,1.21092998 c -1.008,1.06341 -1.4766,2.48515 -1.4766,4.38672 v 1.96094 h -2.3047 v 0.99414 h 2.3047 V 19.601293 c 0,1.90157 -0.1555,2.11914 -2.334,2.11914 v 0.77539 h 6.9414 v -0.77539 c -2.3372,0 -2.4589,-0.1883 -2.4589,-2.05664 V 9.4997231 h 3.9296 v -0.99414 h -3.9472 v -1.8457 c 0,-2.21543 0.3716,-3.32207 0.9883,-4.06055 a 2.0160395,2.0160395 0 0 1 1.5586,-0.6875 c 0.9711,0 1.3675,0.65285 1.7109,1.33594 0.3434,0.68309 0.6268,1.3418 1.3652,1.3418 0.5613,0 0.875,-0.34474 0.875,-0.96875 0,-0.55755 -0.435,-1.33696 -1.3359,-1.92774 A 4.8850188,4.8850188 0 0 0 79.5254,0.95090312 Z m 66.4239,0 a 8.9798683,8.9798683 0 0 1 -3.7305,1.27733998 v 0.68359 c 1.6616,0 1.8476,0.21396 1.8476,2.01953 V 19.661833 c 0,1.80558 -0.046,2.05664 -1.8476,2.05664 v 0.77539 h 5.7871 v -0.77539 c -1.7096,0 -1.7734,-0.25106 -1.7734,-2.05664 v -3.29101 l 1.7441,-1.70899 5.0645,7.83399 h 3.5449 v -0.77539 c -0.9342,0.0295 -1.6123,-0.0943 -2.3028,-1.1836 l -4.7558,-7.21484 3.2637,-3.10547 a 2.7655927,2.7655927 0 0 1 2.1113,-0.9355499 v -0.77539 h -4.6153 v 0.77539 c 1.4955,0 1.2738,0.46679 0.4356,1.2421899 l -4.4297,4.32617 h -0.066 V 1.1364431 Z m -47.67,0.66600998 h 2.9551 c 2.1822,0 3.5768,0.49483 4.4297,1.21484 a 3.9582314,3.9582314 0 0 1 1.2187,2.82813 4.0837723,4.0837723 0 0 1 -1.4355,3.32227 c -1.1077,0.93417 -2.8625,1.3378899 -5.0078,1.3378899 h -3.1074 l 0.01,-7.5957099 c 0,-0.84186 0.1215,-1.10742 0.9375,-1.10742 z m -12.2207,2.97266 c -0.3951,3.26037 -1.7364,4.01264 -3.6933,4.19726 l -0.01,0.7168 h 2.3281 V 19.661833 c 0,2.44067 1.4629,3.17774 3.0469,3.17774 a 4.3754704,4.3754704 0 0 0 3.0508,-1.10743 l -0.4961,-0.68945 a 3.0720602,3.0720602 0 0 1 -1.9297,0.71875 c -1.0892,0 -1.5254,-0.73789 -1.5254,-2.21484 V 9.4997231 h 3.2969 v -0.99414 h -3.2969 v -3.91601 z m 48.8282,3.57031 c -1.717,0 -3.2985,0.99995 -4.5391,2.5839799 h -0.066 l -0.125,-2.3964799 -0.3106,-0.18359 c -1.0227,0.74955 -2.081,1.05928 -3.4472,1.27343 v 0.6855499 c 1.6468,-0.0295 1.8008,0.18835 1.8008,1.99023 v 7.55469 c 0,1.86835 -0.1245,2.05664 -1.8008,2.05664 v 0.77539 h 5.4375 v -0.77539 c -1.4511,0 -1.4766,-0.18829 -1.4766,-2.05664 v -7.49219 c 1.2444,-1.70957 2.6404,-2.8906199 3.9512,-2.8906199 a 2.3852775,2.3852775 0 0 1 1.7988,0.62109 c 0.5834,0.6166299 0.7383,1.6209299 0.7383,2.8320299 v 6.9336 c 0,1.86834 -0.092,2.05664 -1.5879,2.05664 v 0.77539 h 5.2656 v -0.77539 c -1.3957,0 -1.5254,-0.25134 -1.5254,-1.99414 l -0.023,-7.125 c 0,-1.6468 -0.4243,-2.7919799 -1.1074,-3.4492199 -0.6831,-0.65724 -1.6495,-1 -2.9824,-1 z m -16.4649,0.004 a 6.7644403,6.7644403 0 0 0 -3.5488,0.87109 c -0.997,0.58709 -1.6172,1.4316599 -1.6172,2.1738299 a 0.83447789,0.83447789 0 0 0 0.8691,0.90039 1.0117121,1.0117121 0 0 0 1.084,-0.73828 3.5926858,3.5926858 0 0 1 0.9727,-1.5214799 3.2012935,3.2012935 0 0 1 2.1113,-0.70703 c 1.0265,0 1.773,0.30198 2.2383,0.9296799 0.4025,0.52801 0.498,1.47597 0.498,2.17383 v 1.3418 l -1.8457,0.43554 a 13.576881,13.576881 0 0 0 -4.6015,1.76172 c -1.3699,0.90094 -1.9278,2.02222 -1.9278,3.45118 a 3.2825259,3.2825259 0 0 0 1.2403,2.67382 4.5637817,4.5637817 0 0 0 2.8613,0.9375 5.8339605,5.8339605 0 0 0 4.3613,-1.7207 h 0.1114 c 0.2769,1.03017 0.9341,1.58789 2.0234,1.58789 a 4.1613123,4.1613123 0 0 0 1.8984,-0.43555 l -0.1855,-0.71289 a 1.5471072,1.5471072 0 0 1 -0.8418,0.21875 c -0.6203,0 -0.9297,-0.62207 -0.9297,-2.02148 l -0.016,-7.27734 c 0,-1.36988 -0.2224,-2.21582 -1.0273,-3.1093799 -0.805,-0.89356 -1.8676,-1.21289 -3.7286,-1.21289 z m -54.2773,0.002 c -1.9939,0 -3.4237,0.55916 -4.6348,1.68164 -1.248,1.2110999 -1.9277,3.1569899 -1.9277,5.5976599 0,2.82836 0.7385,4.69172 1.957,5.84375 1.248,1.10771 2.7408,1.55859 4.6055,1.55859 1.9569,0 3.4859,-0.5023 4.7265,-1.62109 1.1816,-1.15203 1.8965,-2.98243 1.8965,-5.78125 0,-2.45913 -0.678,-4.35357 -1.8965,-5.5683599 -1.2148,-1.15203 -2.644,-1.71094 -4.7265,-1.71094 z m -0.035,0.96484 a 4.216698,4.216698 0 0 1 3.0801,1.3027399 c 0.8382,1.10771 1.2793,2.64466 1.2793,5.04101 0,2.51821 -0.5295,4.10441 -1.3086,5.09766 a 4.1280809,4.1280809 0 0 1 -6.0293,0 c -0.7828,-0.99325 -1.3145,-2.57945 -1.3145,-5.09766 0,-2.39635 0.4392,-3.94807 1.2774,-5.04101 A 4.216698,4.216698 0 0 1 64.1096,9.1307231 Z M 97.342,11.527213 h 3.8633 c 2.5441,0 4.2567,0.43526 5.3496,1.27344 a 4.1945437,4.1945437 0 0 1 1.709,3.41992 c 0,1.62095 -0.4692,2.76778 -1.2187,3.54687 -1.0561,1.08556 -2.4797,1.55469 -4.6914,1.55469 h -3.8633 c -0.9637,0 -1.1524,-0.22024 -1.1524,-1.52734 z m 23.6875,3.02344 v 5.49414 c -0.7791,0.7754 -1.8472,1.61328 -3.3574,1.61328 a 2.8615945,2.8615945 0 0 1 -2.0566,-0.73828 2.6695908,2.6695908 0 0 1 -0.6817,-1.95704 c 0,-1.42895 0.871,-2.23707 2.0821,-2.89062 1.152,-0.71263 2.677,-1.15225 4.0136,-1.52148 z"
     style="stroke-width:1.2;stroke:currentColor;paint-order:stroke fill;" />
  <path
     id="path2184"
     d="M 0,0.01746312 H 31.0936 V 7.6570031 H 0 Z M 0,15.296533 h 31.0936 v 7.64323 H 0 Z"
     style="fill:#b7bbbe;stroke-width:0.36923802" />
  <path
     id="path2186"
     d="m 130.4851,25.812433 c -2.4149,0 -4.0986,1.82035 -4.0986,4.43086 0,2.73236 1.6062,4.49732 4.0875,4.49732 a 6.6462842,6.6462842 0 0 0 2.3446,-0.36924 v -4.4604 h -2.6769 v 0.92679 h 1.6542 v 2.73605 h -0.037 l -0.133,0.0332 a 4.0173095,4.0173095 0 0 1 -1.1372,0.11816 c -1.7428,0 -3.0056,-1.4548 -3.0056,-3.45976 0,-2.00496 1.2591,-3.45976 3.0647,-3.45976 a 3.4634525,3.4634525 0 0 1 2.1157,0.55755 l 0.081,-1.13725 a 5.2911807,5.2911807 0 0 0 -2.2598,-0.41355 z m 4.2388,3.26776 h 0.9489 v 0.85294 h 0.022 a 1.6763406,1.6763406 0 0 1 1.4364,-0.98218 2.8431327,2.8431327 0 0 1 0.6683,0.0775 v 0.90464 a 1.476952,1.476952 0 0 0 -0.5612,-0.096 c -0.9047,0 -1.4991,0.86401 -1.4991,2.24497 v 2.50343 h -1.0155 z m 6.3509,-0.12924 c 1.6726,0 2.7951,1.20741 2.7951,2.88006 a 2.8025165,2.8025165 0 1 1 -5.6013,0 c 0,-1.67265 1.1225,-2.88006 2.8062,-2.88006 z m 0,4.94041 c 1.1853,0 1.717,-1.07818 1.717,-2.06035 0,-1.04863 -0.6351,-2.06035 -1.717,-2.06035 -1.0819,0 -1.728,1.01541 -1.728,2.06035 0,0.98217 0.528,2.06404 1.728,2.06404 z m 8.954,0.69047 h -0.9821 v -0.87509 h -0.022 a 1.9791157,1.9791157 0 0 1 -1.8019,1.00433 c -1.4253,0 -2.0604,-0.88617 -2.0604,-2.36313 v -3.27144 h 1.0154 v 2.85051 c 0,1.28495 0.2807,1.90896 1.1668,1.96435 1.1557,0 1.6727,-0.92679 1.6727,-2.26712 v -2.54774 h 1.0117 z m 1.7354,-5.50164 h 0.9711 v 0.7754 h 0.022 a 2.2154281,2.2154281 0 0 1 1.8647,-0.90464 c 1.5988,0 2.3742,1.30711 2.3742,2.78406 0,1.47695 -0.7016,2.97975 -2.3631,2.97975 -0.9711,0 -1.5213,-0.36924 -1.8462,-0.88617 h -0.022 v 3.02037 h -1.0007 z m 2.6438,0.69047 c -1.1077,0 -1.6284,1.04495 -1.6284,2.07143 0,0.91571 0.4764,2.04927 1.6173,2.04927 1.141,0 1.5434,-1.21849 1.5213,-2.0825 0.019,-0.98956 -0.4099,-2.0382 -1.5102,-2.0382 z"
     style="stroke-width:1.0;stroke:currentColor;paint-order:stroke fill;" />
</svg>
