<?xml version="1.0" encoding="UTF-8" standalone="no"?>
<svg
   xmlns:dc="http://purl.org/dc/elements/1.1/"
   xmlns:cc="http://creativecommons.org/ns#"
   xmlns:rdf="http://www.w3.org/1999/02/22-rdf-syntax-ns#"
   xmlns:svg="http://www.w3.org/2000/svg"
   xmlns="http://www.w3.org/2000/svg"
   viewBox="0 0 1708.1947 379.39032"
   height="379.39032"
   width="1708.1947"
   id="svg815"
   version="1.1">
  <metadata
     id="metadata821">
    <rdf:RDF>
      <cc:Work
         rdf:about="">
        <dc:format>image/svg+xml</dc:format>
        <dc:type
           rdf:resource="http://purl.org/dc/dcmitype/StillImage" />
        <dc:title></dc:title>
      </cc:Work>
    </rdf:RDF>
  </metadata>
  <defs
     id="defs819">
    <clipPath
       clipPathUnits="userSpaceOnUse"
       id="clipPath2117">
      <path
         d="M 0.06,841.89 H 610.866 V 0.06 H 0.06 Z"
         id="path2115" />
    </clipPath>
    <clipPath
       clipPathUnits="userSpaceOnUse"
       id="clipPath2127">
      <path
         d="M 619.372,-8.51 H 15.591 v 858.896 h 603.781 z"
         id="path2125" />
    </clipPath>
    <clipPath
       clipPathUnits="userSpaceOnUse"
       id="clipPath2135">
      <path
         d="M 965.902,1107.63 H -948.328 V -265.75 h 1914.23 z"
         id="path2133" />
    </clipPath>
    <clipPath
       clipPathUnits="userSpaceOnUse"
       id="clipPath2143">
      <path
         d="m -948.328,1107.637 h 1915 V -266.36 h -1915 v 1373.997"
         id="path2141" />
    </clipPath>
    <clipPath
       clipPathUnits="userSpaceOnUse"
       id="clipPath2151">
      <path
         d="M 620.079,850.394 H -603.071 V -8.504 h 1223.15 z"
         id="path2149"
         style="clip-rule:evenodd" />
    </clipPath>
    <clipPath
       clipPathUnits="userSpaceOnUse"
       id="clipPath2159">
      <path
         d="M 0.06,841.89 H 610.866 V 0.06 H 0.06 Z"
         id="path2157" />
    </clipPath>
    <clipPath
       clipPathUnits="userSpaceOnUse"
       id="clipPath2183">
      <path
         d="M -115.033,781.805 H 1014.682 V 27.77 H -115.033 Z"
         id="path2181" />
    </clipPath>
    <clipPath
       clipPathUnits="userSpaceOnUse"
       id="clipPath2191">
      <path
         d="M 12.581,-15.85 V 783.797 L 545.712,383.973 12.581,-15.85"
         id="path2189" />
    </clipPath>
    <clipPath
       clipPathUnits="userSpaceOnUse"
       id="clipPath2199">
      <path
         d="M 619.372,-8.51 H 15.591 v 858.896 h 603.781 z"
         id="path2197" />
    </clipPath>
    <clipPath
       clipPathUnits="userSpaceOnUse"
       id="clipPath2207">
      <path
         d="M 965.902,1107.63 H -948.328 V -265.75 h 1914.23 z"
         id="path2205" />
    </clipPath>
    <clipPath
       clipPathUnits="userSpaceOnUse"
       id="clipPath2215">
      <path
         d="m -948.328,1107.637 h 1915 V -266.36 h -1915 v 1373.997"
         id="path2213" />
    </clipPath>
    <clipPath
       clipPathUnits="userSpaceOnUse"
       id="clipPath2223">
      <path
         d="M 620.079,850.394 H -603.071 V -8.504 h 1223.15 z"
         id="path2221"
         style="clip-rule:evenodd" />
    </clipPath>
    <clipPath
       clipPathUnits="userSpaceOnUse"
       id="clipPath2231">
      <path
         d="M 0.06,841.89 H 610.866 V 0.06 H 0.06 Z"
         id="path2229" />
    </clipPath>
    <clipPath
       clipPathUnits="userSpaceOnUse"
       id="clipPath2245">
      <path
         d="M 619.372,-8.51 H 15.591 v 858.896 h 603.781 z"
         id="path2243" />
    </clipPath>
    <clipPath
       clipPathUnits="userSpaceOnUse"
       id="clipPath2253">
      <path
         d="M 965.902,1107.63 H -948.328 V -265.75 h 1914.23 z"
         id="path2251" />
    </clipPath>
    <clipPath
       clipPathUnits="userSpaceOnUse"
       id="clipPath2261">
      <path
         d="m -948.328,1107.637 h 1915 V -266.36 h -1915 v 1373.997"
         id="path2259" />
    </clipPath>
    <clipPath
       clipPathUnits="userSpaceOnUse"
       id="clipPath2269">
      <path
         d="M 620.079,850.394 H -603.071 V -8.504 h 1223.15 z"
         id="path2267"
         style="clip-rule:evenodd" />
    </clipPath>
    <clipPath
       clipPathUnits="userSpaceOnUse"
       id="clipPath2277">
      <path
         d="M 0.06,841.89 H 610.866 V 0.06 H 0.06 Z"
         id="path2275" />
    </clipPath>
    <clipPath
       clipPathUnits="userSpaceOnUse"
       id="clipPath2289">
      <path
         d="M 10.996,280.131 102.502,211.513 10.996,142.89 v 137.241"
         id="path2287" />
    </clipPath>
    <clipPath
       clipPathUnits="userSpaceOnUse"
       id="clipPath2297">
      <path
         d="M 619.372,-8.51 H 15.591 v 858.896 h 603.781 z"
         id="path2295" />
    </clipPath>
    <clipPath
       clipPathUnits="userSpaceOnUse"
       id="clipPath2305">
      <path
         d="M 965.902,1107.63 H -948.328 V -265.75 h 1914.23 z"
         id="path2303" />
    </clipPath>
    <clipPath
       clipPathUnits="userSpaceOnUse"
       id="clipPath2313">
      <path
         d="m -948.328,1107.637 h 1915 V -266.36 h -1915 v 1373.997"
         id="path2311" />
    </clipPath>
    <clipPath
       clipPathUnits="userSpaceOnUse"
       id="clipPath2321">
      <path
         d="M 620.079,850.394 H -603.071 V -8.504 h 1223.15 z"
         id="path2319"
         style="clip-rule:evenodd" />
    </clipPath>
    <linearGradient
       x1="0"
       y1="0"
       x2="1"
       y2="0"
       gradientUnits="userSpaceOnUse"
       gradientTransform="matrix(89.048996,0,0,-89.048996,13.110001,211.511)"
       spreadMethod="pad"
       id="linearGradient2339">
      <stop
         style="stop-opacity:1;stop-color:#6162aa"
         offset="0"
         id="stop2335" />
      <stop
         style="stop-opacity:1;stop-color:#2f4097"
         offset="1"
         id="stop2337" />
    </linearGradient>
    <clipPath
       clipPathUnits="userSpaceOnUse"
       id="clipPath2349">
      <path
         d="M 619.372,-8.51 H 15.591 v 858.896 h 603.781 z"
         id="path2347" />
    </clipPath>
    <clipPath
       clipPathUnits="userSpaceOnUse"
       id="clipPath2357">
      <path
         d="M 965.902,1107.63 H -948.328 V -265.75 h 1914.23 z"
         id="path2355" />
    </clipPath>
    <clipPath
       clipPathUnits="userSpaceOnUse"
       id="clipPath2365">
      <path
         d="m -948.328,1107.637 h 1915 V -266.36 h -1915 v 1373.997"
         id="path2363" />
    </clipPath>
    <clipPath
       clipPathUnits="userSpaceOnUse"
       id="clipPath2373">
      <path
         d="M 620.079,850.394 H -603.071 V -8.504 h 1223.15 z"
         id="path2371"
         style="clip-rule:evenodd" />
    </clipPath>
    <clipPath
       clipPathUnits="userSpaceOnUse"
       id="clipPath2381">
      <path
         d="M 0.06,841.89 H 610.866 V 0.06 H 0.06 Z"
         id="path2379" />
    </clipPath>
    <clipPath
       clipPathUnits="userSpaceOnUse"
       id="clipPath2405">
      <path
         d="m 652.332,-15.86 -106.62,79.97 106.62,79.964 106.63,-79.964 -106.63,-79.97"
         id="path2403" />
    </clipPath>
    <clipPath
       clipPathUnits="userSpaceOnUse"
       id="clipPath2413">
      <path
         d="M 619.372,-8.51 H 15.591 v 858.896 h 603.781 z"
         id="path2411" />
    </clipPath>
    <clipPath
       clipPathUnits="userSpaceOnUse"
       id="clipPath2421">
      <path
         d="M 965.902,1107.63 H -948.328 V -265.75 h 1914.23 z"
         id="path2419" />
    </clipPath>
    <clipPath
       clipPathUnits="userSpaceOnUse"
       id="clipPath2429">
      <path
         d="m -948.328,1107.637 h 1915 V -266.36 h -1915 v 1373.997"
         id="path2427" />
    </clipPath>
    <clipPath
       clipPathUnits="userSpaceOnUse"
       id="clipPath2437">
      <path
         d="M 620.079,850.394 H -603.071 V -8.504 h 1223.15 z"
         id="path2435"
         style="clip-rule:evenodd" />
    </clipPath>
    <linearGradient
       x1="0"
       y1="0"
       x2="1"
       y2="0"
       gradientUnits="userSpaceOnUse"
       gradientTransform="matrix(214.105,162.468,162.468,-214.105,472.46201,-72.380005)"
       spreadMethod="pad"
       id="linearGradient2455">
      <stop
         style="stop-opacity:1;stop-color:#7775b6"
         offset="0"
         id="stop2451" />
      <stop
         style="stop-opacity:1;stop-color:#0c3290"
         offset="1"
         id="stop2453" />
    </linearGradient>
    <clipPath
       clipPathUnits="userSpaceOnUse"
       id="clipPath2465">
      <path
         d="M 619.372,-8.51 H 15.591 v 858.896 h 603.781 z"
         id="path2463" />
    </clipPath>
    <clipPath
       clipPathUnits="userSpaceOnUse"
       id="clipPath2473">
      <path
         d="M 965.902,1107.63 H -948.328 V -265.75 h 1914.23 z"
         id="path2471" />
    </clipPath>
    <clipPath
       clipPathUnits="userSpaceOnUse"
       id="clipPath2481">
      <path
         d="m -948.328,1107.637 h 1915 V -266.36 h -1915 v 1373.997"
         id="path2479" />
    </clipPath>
    <clipPath
       clipPathUnits="userSpaceOnUse"
       id="clipPath2489">
      <path
         d="M 620.079,850.394 H -603.071 V -8.504 h 1223.15 z"
         id="path2487"
         style="clip-rule:evenodd" />
    </clipPath>
    <clipPath
       clipPathUnits="userSpaceOnUse"
       id="clipPath2497">
      <path
         d="M 0.06,841.89 H 610.866 V 0.06 H 0.06 Z"
         id="path2495" />
    </clipPath>
    <clipPath
       clipPathUnits="userSpaceOnUse"
       id="clipPath2529">
      <path
         d="m 630.772,559.464 -404.94,303.678 69.3,51.602 404.93,-303.678 -69.29,-51.602"
         id="path2527" />
    </clipPath>
    <clipPath
       clipPathUnits="userSpaceOnUse"
       id="clipPath2537">
      <path
         d="M 619.372,-8.51 H 15.591 v 858.896 h 603.781 z"
         id="path2535" />
    </clipPath>
    <clipPath
       clipPathUnits="userSpaceOnUse"
       id="clipPath2545">
      <path
         d="M 965.902,1107.63 H -948.328 V -265.75 h 1914.23 z"
         id="path2543" />
    </clipPath>
    <clipPath
       clipPathUnits="userSpaceOnUse"
       id="clipPath2553">
      <path
         d="m -948.328,1107.637 h 1915 V -266.36 h -1915 v 1373.997"
         id="path2551" />
    </clipPath>
    <clipPath
       clipPathUnits="userSpaceOnUse"
       id="clipPath2561">
      <path
         d="M 620.079,850.394 H -603.071 V -8.504 h 1223.15 z"
         id="path2559"
         style="clip-rule:evenodd" />
    </clipPath>
    <linearGradient
       x1="0"
       y1="0"
       x2="1"
       y2="0"
       gradientUnits="userSpaceOnUse"
       gradientTransform="matrix(381.338,0,0,-381.338,238.21201,737.104)"
       spreadMethod="pad"
       id="linearGradient2579">
      <stop
         style="stop-opacity:1;stop-color:#6162aa"
         offset="0"
         id="stop2575" />
      <stop
         style="stop-opacity:1;stop-color:#0d318f"
         offset="1"
         id="stop2577" />
    </linearGradient>
    <clipPath
       clipPathUnits="userSpaceOnUse"
       id="clipPath2589">
      <path
         d="m 545.712,-95.82 -106.63,79.96 106.63,79.97 106.62,-79.97 -106.62,-79.96"
         id="path2587" />
    </clipPath>
    <clipPath
       clipPathUnits="userSpaceOnUse"
       id="clipPath2597">
      <path
         d="M 619.372,-8.51 H 15.591 v 858.896 h 603.781 z"
         id="path2595" />
    </clipPath>
    <clipPath
       clipPathUnits="userSpaceOnUse"
       id="clipPath2605">
      <path
         d="M 965.902,1107.63 H -948.328 V -265.75 h 1914.23 z"
         id="path2603" />
    </clipPath>
    <clipPath
       clipPathUnits="userSpaceOnUse"
       id="clipPath2613">
      <path
         d="m -948.328,1107.637 h 1915 V -266.36 h -1915 v 1373.997"
         id="path2611" />
    </clipPath>
    <clipPath
       clipPathUnits="userSpaceOnUse"
       id="clipPath2621">
      <path
         d="M 620.079,850.394 H -603.071 V -8.504 h 1223.15 z"
         id="path2619"
         style="clip-rule:evenodd" />
    </clipPath>
    <linearGradient
       x1="0"
       y1="0"
       x2="1"
       y2="0"
       gradientUnits="userSpaceOnUse"
       gradientTransform="matrix(214.105,162.46899,162.46899,-214.105,472.01199,-71.779999)"
       spreadMethod="pad"
       id="linearGradient2639">
      <stop
         style="stop-opacity:1;stop-color:#7775b6"
         offset="0"
         id="stop2635" />
      <stop
         style="stop-opacity:1;stop-color:#0c3290"
         offset="1"
         id="stop2637" />
    </linearGradient>
    <clipPath
       clipPathUnits="userSpaceOnUse"
       id="clipPath2649">
      <path
         d="m 225.832,-15.86 -106.62,79.97 106.62,79.964 106.63,-79.964 -106.63,-79.97"
         id="path2647" />
    </clipPath>
    <clipPath
       clipPathUnits="userSpaceOnUse"
       id="clipPath2657">
      <path
         d="M 619.372,-8.51 H 15.591 v 858.896 h 603.781 z"
         id="path2655" />
    </clipPath>
    <clipPath
       clipPathUnits="userSpaceOnUse"
       id="clipPath2665">
      <path
         d="M 965.902,1107.63 H -948.328 V -265.75 h 1914.23 z"
         id="path2663" />
    </clipPath>
    <clipPath
       clipPathUnits="userSpaceOnUse"
       id="clipPath2673">
      <path
         d="m -948.328,1107.637 h 1915 V -266.36 h -1915 v 1373.997"
         id="path2671" />
    </clipPath>
    <clipPath
       clipPathUnits="userSpaceOnUse"
       id="clipPath2681">
      <path
         d="M 620.079,850.394 H -603.071 V -8.504 h 1223.15 z"
         id="path2679"
         style="clip-rule:evenodd" />
    </clipPath>
    <linearGradient
       x1="0"
       y1="0"
       x2="1"
       y2="0"
       gradientUnits="userSpaceOnUse"
       gradientTransform="matrix(485.97501,0,0,-485.97501,127.21201,64.110001)"
       spreadMethod="pad"
       id="linearGradient2699">
      <stop
         style="stop-opacity:1;stop-color:#c5e0ae"
         offset="0"
         id="stop2695" />
      <stop
         style="stop-opacity:1;stop-color:#46b035"
         offset="1"
         id="stop2697" />
    </linearGradient>
    <clipPath
       clipPathUnits="userSpaceOnUse"
       id="clipPath2709">
      <path
         d="M 119.212,-95.82 12.586,-15.86 119.212,64.11 225.832,-15.86 119.212,-95.82"
         id="path2707" />
    </clipPath>
    <clipPath
       clipPathUnits="userSpaceOnUse"
       id="clipPath2717">
      <path
         d="M 619.372,-8.51 H 15.591 v 858.896 h 603.781 z"
         id="path2715" />
    </clipPath>
    <clipPath
       clipPathUnits="userSpaceOnUse"
       id="clipPath2725">
      <path
         d="M 965.902,1107.63 H -948.328 V -265.75 h 1914.23 z"
         id="path2723" />
    </clipPath>
    <clipPath
       clipPathUnits="userSpaceOnUse"
       id="clipPath2733">
      <path
         d="m -948.328,1107.637 h 1915 V -266.36 h -1915 v 1373.997"
         id="path2731" />
    </clipPath>
    <clipPath
       clipPathUnits="userSpaceOnUse"
       id="clipPath2741">
      <path
         d="M 620.079,850.394 H -603.071 V -8.504 h 1223.15 z"
         id="path2739"
         style="clip-rule:evenodd" />
    </clipPath>
    <linearGradient
       x1="0"
       y1="0"
       x2="1"
       y2="0"
       gradientUnits="userSpaceOnUse"
       gradientTransform="matrix(485.97501,0,0,-485.97501,127.21201,-15.860001)"
       spreadMethod="pad"
       id="linearGradient2759">
      <stop
         style="stop-opacity:1;stop-color:#c5e0ae"
         offset="0"
         id="stop2755" />
      <stop
         style="stop-opacity:1;stop-color:#46b035"
         offset="1"
         id="stop2757" />
    </linearGradient>
    <clipPath
       clipPathUnits="userSpaceOnUse"
       id="clipPath2769">
      <path
         d="m 545.712,224.038 -106.63,79.967 106.63,79.964 106.62,-79.964 -106.62,-79.967"
         id="path2767" />
    </clipPath>
    <clipPath
       clipPathUnits="userSpaceOnUse"
       id="clipPath2777">
      <path
         d="M 619.372,-8.51 H 15.591 v 858.896 h 603.781 z"
         id="path2775" />
    </clipPath>
    <clipPath
       clipPathUnits="userSpaceOnUse"
       id="clipPath2785">
      <path
         d="M 965.902,1107.63 H -948.328 V -265.75 h 1914.23 z"
         id="path2783" />
    </clipPath>
    <clipPath
       clipPathUnits="userSpaceOnUse"
       id="clipPath2793">
      <path
         d="m -948.328,1107.637 h 1915 V -266.36 h -1915 v 1373.997"
         id="path2791" />
    </clipPath>
    <clipPath
       clipPathUnits="userSpaceOnUse"
       id="clipPath2801">
      <path
         d="M 620.079,850.394 H -603.071 V -8.504 h 1223.15 z"
         id="path2799"
         style="clip-rule:evenodd" />
    </clipPath>
    <linearGradient
       x1="0"
       y1="0"
       x2="1"
       y2="0"
       gradientUnits="userSpaceOnUse"
       gradientTransform="matrix(485.97501,0,0,-485.97501,127.21201,304.00301)"
       spreadMethod="pad"
       id="linearGradient2819">
      <stop
         style="stop-opacity:1;stop-color:#c5e0ae"
         offset="0"
         id="stop2815" />
      <stop
         style="stop-opacity:1;stop-color:#46b035"
         offset="1"
         id="stop2817" />
    </linearGradient>
    <linearGradient
       x1="0"
       y1="0"
       x2="1"
       y2="0"
       gradientUnits="userSpaceOnUse"
       gradientTransform="matrix(485.97501,0,0,-485.97501,127.21201,224.03999)"
       spreadMethod="pad"
       id="linearGradient2839">
      <stop
         style="stop-opacity:1;stop-color:#c5e0ae"
         offset="0"
         id="stop2835" />
      <stop
         style="stop-opacity:1;stop-color:#46b035"
         offset="1"
         id="stop2837" />
    </linearGradient>
    <linearGradient
       x1="0"
       y1="0"
       x2="1"
       y2="0"
       gradientUnits="userSpaceOnUse"
       gradientTransform="matrix(485.97501,0,0,-485.97501,127.21201,144.073)"
       spreadMethod="pad"
       id="linearGradient2859">
      <stop
         style="stop-opacity:1;stop-color:#c5e0ae"
         offset="0"
         id="stop2855" />
      <stop
         style="stop-opacity:1;stop-color:#46b035"
         offset="1"
         id="stop2857" />
    </linearGradient>
    <clipPath
       clipPathUnits="userSpaceOnUse"
       id="clipPath2869">
      <path
         d="m 652.332,144.074 -106.62,79.966 106.62,79.965 106.63,-79.965 -106.63,-79.966"
         id="path2867" />
    </clipPath>
    <clipPath
       clipPathUnits="userSpaceOnUse"
       id="clipPath2877">
      <path
         d="M 619.372,-8.51 H 15.591 v 858.896 h 603.781 z"
         id="path2875" />
    </clipPath>
    <clipPath
       clipPathUnits="userSpaceOnUse"
       id="clipPath2885">
      <path
         d="M 965.902,1107.63 H -948.328 V -265.75 h 1914.23 z"
         id="path2883" />
    </clipPath>
    <clipPath
       clipPathUnits="userSpaceOnUse"
       id="clipPath2893">
      <path
         d="m -948.328,1107.637 h 1915 V -266.36 h -1915 v 1373.997"
         id="path2891" />
    </clipPath>
    <clipPath
       clipPathUnits="userSpaceOnUse"
       id="clipPath2901">
      <path
         d="M 620.079,850.394 H -603.071 V -8.504 h 1223.15 z"
         id="path2899"
         style="clip-rule:evenodd" />
    </clipPath>
    <linearGradient
       x1="0"
       y1="0"
       x2="1"
       y2="0"
       gradientUnits="userSpaceOnUse"
       gradientTransform="matrix(415.662,308.73399,308.73399,-415.662,273.302,-57.490006)"
       spreadMethod="pad"
       id="linearGradient2919">
      <stop
         style="stop-opacity:1;stop-color:#bbb8db"
         offset="0"
         id="stop2915" />
      <stop
         style="stop-opacity:1;stop-color:#0c3290"
         offset="1"
         id="stop2917" />
    </linearGradient>
    <clipPath
       clipPathUnits="userSpaceOnUse"
       id="clipPath2929">
      <path
         d="m 545.712,64.11 -106.63,79.964 106.63,79.966 106.62,-79.966 -106.62,-79.964"
         id="path2927" />
    </clipPath>
    <clipPath
       clipPathUnits="userSpaceOnUse"
       id="clipPath2937">
      <path
         d="M 619.372,-8.51 H 15.591 v 858.896 h 603.781 z"
         id="path2935" />
    </clipPath>
    <clipPath
       clipPathUnits="userSpaceOnUse"
       id="clipPath2945">
      <path
         d="M 965.902,1107.63 H -948.328 V -265.75 h 1914.23 z"
         id="path2943" />
    </clipPath>
    <clipPath
       clipPathUnits="userSpaceOnUse"
       id="clipPath2953">
      <path
         d="m -948.328,1107.637 h 1915 V -266.36 h -1915 v 1373.997"
         id="path2951" />
    </clipPath>
    <clipPath
       clipPathUnits="userSpaceOnUse"
       id="clipPath2961">
      <path
         d="M 620.079,850.394 H -603.071 V -8.504 h 1223.15 z"
         id="path2959"
         style="clip-rule:evenodd" />
    </clipPath>
    <linearGradient
       x1="0"
       y1="0"
       x2="1"
       y2="0"
       gradientUnits="userSpaceOnUse"
       gradientTransform="matrix(415.661,308.733,308.733,-415.661,273.672,-57.979996)"
       spreadMethod="pad"
       id="linearGradient2979">
      <stop
         style="stop-opacity:1;stop-color:#bbb8db"
         offset="0"
         id="stop2975" />
      <stop
         style="stop-opacity:1;stop-color:#0c3290"
         offset="1"
         id="stop2977" />
    </linearGradient>
    <clipPath
       clipPathUnits="userSpaceOnUse"
       id="clipPath2989">
      <path
         d="m 439.082,-15.86 -106.62,79.97 106.62,79.964 106.63,-79.964 -106.63,-79.97"
         id="path2987" />
    </clipPath>
    <clipPath
       clipPathUnits="userSpaceOnUse"
       id="clipPath2997">
      <path
         d="M 619.372,-8.51 H 15.591 v 858.896 h 603.781 z"
         id="path2995" />
    </clipPath>
    <clipPath
       clipPathUnits="userSpaceOnUse"
       id="clipPath3005">
      <path
         d="M 965.902,1107.63 H -948.328 V -265.75 h 1914.23 z"
         id="path3003" />
    </clipPath>
    <clipPath
       clipPathUnits="userSpaceOnUse"
       id="clipPath3013">
      <path
         d="m -948.328,1107.637 h 1915 V -266.36 h -1915 v 1373.997"
         id="path3011" />
    </clipPath>
    <clipPath
       clipPathUnits="userSpaceOnUse"
       id="clipPath3021">
      <path
         d="M 620.079,850.394 H -603.071 V -8.504 h 1223.15 z"
         id="path3019"
         style="clip-rule:evenodd" />
    </clipPath>
    <linearGradient
       x1="0"
       y1="0"
       x2="1"
       y2="0"
       gradientUnits="userSpaceOnUse"
       gradientTransform="matrix(415.662,308.73399,308.73399,-415.662,274.04201,-58.479996)"
       spreadMethod="pad"
       id="linearGradient3039">
      <stop
         style="stop-opacity:1;stop-color:#bbb8db"
         offset="0"
         id="stop3035" />
      <stop
         style="stop-opacity:1;stop-color:#0c3290"
         offset="1"
         id="stop3037" />
    </linearGradient>
    <clipPath
       clipPathUnits="userSpaceOnUse"
       id="clipPath3049">
      <path
         d="m 332.462,-95.82 -106.63,79.96 106.63,79.97 106.62,-79.97 -106.62,-79.96"
         id="path3047" />
    </clipPath>
    <clipPath
       clipPathUnits="userSpaceOnUse"
       id="clipPath3057">
      <path
         d="M 619.372,-8.51 H 15.591 v 858.896 h 603.781 z"
         id="path3055" />
    </clipPath>
    <clipPath
       clipPathUnits="userSpaceOnUse"
       id="clipPath3065">
      <path
         d="M 965.902,1107.63 H -948.328 V -265.75 h 1914.23 z"
         id="path3063" />
    </clipPath>
    <clipPath
       clipPathUnits="userSpaceOnUse"
       id="clipPath3073">
      <path
         d="m -948.328,1107.637 h 1915 V -266.36 h -1915 v 1373.997"
         id="path3071" />
    </clipPath>
    <clipPath
       clipPathUnits="userSpaceOnUse"
       id="clipPath3081">
      <path
         d="M 620.079,850.394 H -603.071 V -8.504 h 1223.15 z"
         id="path3079"
         style="clip-rule:evenodd" />
    </clipPath>
    <linearGradient
       x1="0"
       y1="0"
       x2="1"
       y2="0"
       gradientUnits="userSpaceOnUse"
       gradientTransform="matrix(415.664,308.735,308.735,-415.664,274.412,-58.970001)"
       spreadMethod="pad"
       id="linearGradient3099">
      <stop
         style="stop-opacity:1;stop-color:#bbb8db"
         offset="0"
         id="stop3095" />
      <stop
         style="stop-opacity:1;stop-color:#0c3290"
         offset="1"
         id="stop3097" />
    </linearGradient>
    <clipPath
       clipPathUnits="userSpaceOnUse"
       id="clipPath3109">
      <path
         d="m 142.442,391.873 h 403.27 V 122.635 h -403.27 z"
         id="path3107" />
    </clipPath>
    <clipPath
       clipPathUnits="userSpaceOnUse"
       id="clipPath3117">
      <path
         d="m 304.542,123.136 -159.94,119.949 196.94,147.7 159.94,-119.947 -196.94,-147.702"
         id="path3115" />
    </clipPath>
    <clipPath
       clipPathUnits="userSpaceOnUse"
       id="clipPath3131">
      <path
         d="m 317.412,542.996 h 408.8 V 270.069 h -408.8 z"
         id="path3129" />
    </clipPath>
    <clipPath
       clipPathUnits="userSpaceOnUse"
       id="clipPath3139">
      <path
         d="m 501.482,270.839 -159.94,119.949 196.94,147.7 159.94,-119.947 -196.94,-147.702"
         id="path3137" />
    </clipPath>
    <clipPath
       clipPathUnits="userSpaceOnUse"
       id="clipPath3147">
      <path
         d="M 619.372,-8.51 H 15.591 v 858.896 h 603.781 z"
         id="path3145" />
    </clipPath>
    <clipPath
       clipPathUnits="userSpaceOnUse"
       id="clipPath3155">
      <path
         d="M 965.902,1107.63 H -948.328 V -265.75 h 1914.23 z"
         id="path3153" />
    </clipPath>
    <clipPath
       clipPathUnits="userSpaceOnUse"
       id="clipPath3163">
      <path
         d="m -948.328,1107.637 h 1915 V -266.36 h -1915 v 1373.997"
         id="path3161" />
    </clipPath>
    <clipPath
       clipPathUnits="userSpaceOnUse"
       id="clipPath3171">
      <path
         d="M 620.079,850.394 H -603.071 V -8.504 h 1223.15 z"
         id="path3169"
         style="clip-rule:evenodd" />
    </clipPath>
    <clipPath
       clipPathUnits="userSpaceOnUse"
       id="clipPath3179">
      <path
         d="M 0.06,841.89 H 610.866 V 0.06 H 0.06 Z"
         id="path3177" />
    </clipPath>
    <clipPath
       clipPathUnits="userSpaceOnUse"
       id="clipPath3193">
      <path
         d="m -30.788,243.099 h 378.48 V -9.59 h -378.48 z"
         id="path3191" />
    </clipPath>
    <clipPath
       clipPathUnits="userSpaceOnUse"
       id="clipPath3201">
      <path
         d="M 65.902,-55.83 -94.042,64.12 144.602,243.082 304.542,123.136 65.902,-55.83"
         id="path3199" />
    </clipPath>
    <clipPath
       clipPathUnits="userSpaceOnUse"
       id="clipPath3209">
      <path
         d="M 619.372,-8.51 H 15.591 v 858.896 h 603.781 z"
         id="path3207" />
    </clipPath>
    <clipPath
       clipPathUnits="userSpaceOnUse"
       id="clipPath3217">
      <path
         d="M 965.902,1107.63 H -948.328 V -265.75 h 1914.23 z"
         id="path3215" />
    </clipPath>
    <clipPath
       clipPathUnits="userSpaceOnUse"
       id="clipPath3225">
      <path
         d="m -948.328,1107.637 h 1915 V -266.36 h -1915 v 1373.997"
         id="path3223" />
    </clipPath>
    <clipPath
       clipPathUnits="userSpaceOnUse"
       id="clipPath3233">
      <path
         d="M 620.079,850.394 H -603.071 V -8.504 h 1223.15 z"
         id="path3231"
         style="clip-rule:evenodd" />
    </clipPath>
    <clipPath
       clipPathUnits="userSpaceOnUse"
       id="clipPath3241">
      <path
         d="M 0.06,841.89 H 610.866 V 0.06 H 0.06 Z"
         id="path3239" />
    </clipPath>
    <clipPath
       clipPathUnits="userSpaceOnUse"
       id="clipPath3255">
      <path
         d="M 619.372,-8.51 H 15.591 v 858.896 h 603.781 z"
         id="path3253" />
    </clipPath>
    <clipPath
       clipPathUnits="userSpaceOnUse"
       id="clipPath3263">
      <path
         d="M 965.902,1107.63 H -948.328 V -265.75 h 1914.23 z"
         id="path3261" />
    </clipPath>
    <clipPath
       clipPathUnits="userSpaceOnUse"
       id="clipPath3271">
      <path
         d="m -948.328,1107.637 h 1915 V -266.36 h -1915 v 1373.997"
         id="path3269" />
    </clipPath>
    <clipPath
       clipPathUnits="userSpaceOnUse"
       id="clipPath3279">
      <path
         d="M 620.079,850.394 H -603.071 V -8.504 h 1223.15 z"
         id="path3277"
         style="clip-rule:evenodd" />
    </clipPath>
    <clipPath
       clipPathUnits="userSpaceOnUse"
       id="clipPath3287">
      <path
         d="M 0.06,841.89 H 610.866 V 0.06 H 0.06 Z"
         id="path3285" />
    </clipPath>
    <clipPath
       clipPathUnits="userSpaceOnUse"
       id="clipPath3303">
      <path
         d="M 965.902,1107.63 H -948.328 V -265.75 h 1914.23 z"
         id="path3301" />
    </clipPath>
    <clipPath
       clipPathUnits="userSpaceOnUse"
       id="clipPath3311">
      <path
         d="m -948.328,1107.637 h 1915 V -266.36 h -1915 v 1373.997"
         id="path3309" />
    </clipPath>
    <clipPath
       clipPathUnits="userSpaceOnUse"
       id="clipPath3319">
      <path
         d="M 620.079,850.394 H -603.071 V -8.504 h 1223.15 z"
         id="path3317"
         style="clip-rule:evenodd" />
    </clipPath>
    <clipPath
       clipPathUnits="userSpaceOnUse"
       id="clipPath3327">
      <path
         d="M 0.06,841.89 H 610.866 V 0.06 H 0.06 Z"
         id="path3325" />
    </clipPath>
    <clipPath
       clipPathUnits="userSpaceOnUse"
       id="clipPath3343">
      <path
         d="m 619.372,-8.51 h -155.04 v 155.041 h 155.04 z"
         id="path3341" />
    </clipPath>
    <clipPath
       clipPathUnits="userSpaceOnUse"
       id="clipPath3351">
      <path
         d="M 965.902,1107.63 H -948.328 V -265.75 h 1914.23 z"
         id="path3349" />
    </clipPath>
    <clipPath
       clipPathUnits="userSpaceOnUse"
       id="clipPath3359">
      <path
         d="m -948.328,1107.637 h 1915 V -266.36 h -1915 v 1373.997"
         id="path3357" />
    </clipPath>
    <clipPath
       clipPathUnits="userSpaceOnUse"
       id="clipPath3367">
      <path
         d="M 620.079,850.394 H -603.071 V -8.504 h 1223.15 z"
         id="path3365"
         style="clip-rule:evenodd" />
    </clipPath>
    <clipPath
       clipPathUnits="userSpaceOnUse"
       id="clipPath3375">
      <path
         d="M 0.06,841.89 H 610.866 V 0.06 H 0.06 Z"
         id="path3373" />
    </clipPath>
    <clipPath
       clipPathUnits="userSpaceOnUse"
       id="clipPath3479">
      <path
         d="M 619.372,850.386 H 322.292 V 596.488 h 297.08 z"
         id="path3477" />
    </clipPath>
    <clipPath
       clipPathUnits="userSpaceOnUse"
       id="clipPath3487">
      <path
         d="M 965.902,1107.63 H -948.328 V -265.75 h 1914.23 z"
         id="path3485" />
    </clipPath>
    <clipPath
       clipPathUnits="userSpaceOnUse"
       id="clipPath3495">
      <path
         d="m -948.328,1107.637 h 1915 V -266.36 h -1915 v 1373.997"
         id="path3493" />
    </clipPath>
    <clipPath
       clipPathUnits="userSpaceOnUse"
       id="clipPath3503">
      <path
         d="M 620.079,850.394 H -603.071 V -8.504 h 1223.15 z"
         id="path3501"
         style="clip-rule:evenodd" />
    </clipPath>
    <clipPath
       clipPathUnits="userSpaceOnUse"
       id="clipPath3511">
      <path
         d="M 0.06,841.89 H 610.866 V 0.06 H 0.06 Z"
         id="path3509" />
    </clipPath>
    <clipPath
       clipPathUnits="userSpaceOnUse"
       id="clipPath3527">
      <path
         d="M 965.902,1107.63 H -948.328 V -265.75 h 1914.23 z"
         id="path3525" />
    </clipPath>
    <clipPath
       clipPathUnits="userSpaceOnUse"
       id="clipPath3535">
      <path
         d="m -948.328,1107.637 h 1915 V -266.36 h -1915 v 1373.997"
         id="path3533" />
    </clipPath>
    <clipPath
       clipPathUnits="userSpaceOnUse"
       id="clipPath3543">
      <path
         d="M 620.079,850.394 H -603.071 V -8.504 h 1223.15 z"
         id="path3541"
         style="clip-rule:evenodd" />
    </clipPath>
    <clipPath
       clipPathUnits="userSpaceOnUse"
       id="clipPath3551">
      <path
         d="M 0.06,841.89 H 610.866 V 0.06 H 0.06 Z"
         id="path3549" />
    </clipPath>
  </defs>
  <g
     transform="matrix(2.0630969,0,0,-2.0630969,958.52763,6.4177976)"
     id="g3557" />
  <g
     transform="matrix(2.0630969,0,0,-2.0630969,1050.1084,41.531708)"
     id="g3617" />
  <g
     transform="matrix(6.3602394,0,0,6.3602394,-6034.7851,-2665.0151)"
     id="g6198">
    <g
       id="g3621"
       transform="matrix(2.0630969,0,0,-2.0630969,1040.2869,441.24991)">
      <path
         d="m 0,0 1.44,1.723 c 1,-0.819 2.05,-1.342 3.32,-1.342 1,0 1.6,0.394 1.6,1.043 V 1.457 C 6.36,2.076 5.98,2.391 4.12,2.869 1.89,3.439 0.45,4.058 0.45,6.262 v 0.031 c 0,2.012 1.62,3.344 3.88,3.344 1.62,0 3,-0.512 4.12,-1.414 L 7.18,6.389 C 6.2,7.068 5.23,7.482 4.3,7.482 3.36,7.482 2.87,7.053 2.87,6.514 V 6.482 C 2.87,5.754 3.35,5.517 5.26,5.025 7.51,4.433 8.78,3.631 8.78,1.693 V 1.666 C 8.78,-0.541 7.1,-1.776 4.71,-1.776 3.03,-1.776 1.33,-1.19 0,0"
         style="fill:#0d318f;fill-opacity:1;fill-rule:nonzero;stroke:none"
         id="path3623" />
    </g>
    <g
       id="g3625"
       transform="matrix(2.0630969,0,0,-2.0630969,1061.1242,434.76974)">
      <path
         d="M 0,0 V 6.333 H 2.44 V 0.06 c 0,-1.81 0.9,-2.744 2.39,-2.744 1.49,0 2.39,0.904 2.39,2.662 V 6.333 H 9.67 V 0.076 c 0,-3.36 -1.89,-5.01 -4.87,-5.01 C 1.82,-4.934 0,-3.272 0,0"
         style="fill:#0d318f;fill-opacity:1;fill-rule:nonzero;stroke:none"
         id="path3627" />
    </g>
    <g
       id="g3629"
       transform="matrix(2.0630969,0,0,-2.0630969,1084.8911,421.70413)">
      <path
         d="M 0,0 H 2.63 L 5.55,-4.687 8.46,0 h 2.63 V -11.089 H 8.67 v 7.24 L 5.55,-8.587 H 5.48 L 2.39,-3.9 v -7.189 H 0"
         style="fill:#0d318f;fill-opacity:1;fill-rule:nonzero;stroke:none"
         id="path3631" />
    </g>
    <path
       d="m 1112.516,444.58181 h 5.0339 v -22.87768 h -5.0339 z"
       style="fill:#0d318f;fill-opacity:1;fill-rule:nonzero;stroke:none;stroke-width:2.063097"
       id="path3633" />
    <g
       id="g3635"
       transform="matrix(2.0630969,0,0,-2.0630969,1127.6178,426.3461)">
      <path
         d="m 0,0 h -3.38 v 2.25 h 9.2 V 0 H 2.44 V -8.839 H 0"
         style="fill:#0d318f;fill-opacity:1;fill-rule:nonzero;stroke:none"
         id="path3637" />
    </g>
    <g
       id="g3639"
       transform="matrix(2.0630969,0,0,-2.0630969,1159.2245,433.20796)">
      <path
         d="m 0,0 v 0.034 c 0,1.9 -1.39,3.486 -3.36,3.486 -1.96,0 -3.32,-1.553 -3.32,-3.455 V 0.034 c 0,-1.901 1.39,-3.487 3.35,-3.487 C -1.36,-3.453 0,-1.9 0,0 m -9.23,0 v 0.034 c 0,3.15 2.48,5.738 5.9,5.738 3.43,0 5.88,-2.555 5.88,-5.707 V 0.034 c 0,-3.157 -2.48,-5.739 -5.91,-5.739 -3.42,0 -5.87,2.551 -5.87,5.705"
         style="fill:#0d318f;fill-opacity:1;fill-rule:nonzero;stroke:none"
         id="path3641" />
    </g>
    <g
       id="g3643"
       transform="matrix(2.0630969,0,0,-2.0630969,1167.3325,421.70413)">
      <path
         d="M 0,0 H 2.64 L 5.55,-4.687 8.46,0 H 11.1 V -11.089 H 8.67 v 7.24 L 5.55,-8.587 H 5.49 L 2.4,-3.9 v -7.189 H 0"
         style="fill:#0d318f;fill-opacity:1;fill-rule:nonzero;stroke:none"
         id="path3645" />
    </g>
    <g
       id="g3647"
       transform="matrix(2.0630969,0,0,-2.0630969,1212.1223,433.20796)">
      <path
         d="m 0,0 v 0.034 c 0,1.9 -1.4,3.486 -3.36,3.486 -1.96,0 -3.33,-1.553 -3.33,-3.455 V 0.034 c 0,-1.901 1.4,-3.487 3.37,-3.487 C -1.36,-3.453 0,-1.9 0,0 m -9.24,0 v 0.034 c 0,3.15 2.49,5.738 5.92,5.738 3.41,0 5.88,-2.555 5.88,-5.707 V 0.034 c 0,-3.157 -2.5,-5.739 -5.92,-5.739 -3.42,0 -5.88,2.551 -5.88,5.705"
         style="fill:#0d318f;fill-opacity:1;fill-rule:nonzero;stroke:none"
         id="path3649" />
    </g>
    <g
       id="g3651"
       transform="matrix(2.0630969,0,0,-2.0630969,1041.8755,453.05907)">
      <path
         d="M 0,0 H 8.36 V -2.17 H 2.42 V -4.424 H 7.65 V -6.593 H 2.42 v -2.329 h 6.02 v -2.17 H 0"
         style="fill:#0d318f;fill-opacity:1;fill-rule:nonzero;stroke:none"
         id="path3653" />
    </g>
    <g
       id="g3655"
       transform="matrix(2.0630969,0,0,-2.0630969,1062.7953,453.05907)">
      <path
         d="m 0,0 h 2.44 v -8.875 h 5.53 v -2.217 H 0"
         style="fill:#0d318f;fill-opacity:1;fill-rule:nonzero;stroke:none"
         id="path3657" />
    </g>
    <g
       id="g3659"
       transform="matrix(2.0630969,0,0,-2.0630969,1082.044,453.05907)">
      <path
         d="M 0,0 H 8.37 V -2.17 H 2.42 V -4.424 H 7.65 V -6.593 H 2.42 v -2.329 h 6.03 v -2.17 H 0"
         style="fill:#0d318f;fill-opacity:1;fill-rule:nonzero;stroke:none"
         id="path3661" />
    </g>
    <g
       id="g3663"
       transform="matrix(2.0630969,0,0,-2.0630969,1101.7879,464.56703)">
      <path
         d="m 0,0 v 0.031 c 0,3.155 2.37,5.739 5.78,5.739 2.1,0 3.35,-0.7 4.38,-1.717 L 8.6,2.264 C 7.75,3.041 6.88,3.52 5.77,3.52 3.9,3.52 2.55,1.967 2.55,0.061 v -0.03 c 0,-1.898 1.32,-3.486 3.22,-3.486 1.26,0 2.04,0.508 2.91,1.299 l 1.56,-1.568 C 9.09,-4.947 7.83,-5.707 5.69,-5.707 2.42,-5.707 0,-3.187 0,0"
         style="fill:#0d318f;fill-opacity:1;fill-rule:nonzero;stroke:none"
         id="path3665" />
    </g>
    <g
       id="g3667"
       transform="matrix(2.0630969,0,0,-2.0630969,1131.4346,457.70517)">
      <path
         d="M 0,0 H -3.37 V 2.252 H 5.82 V 0 H 2.44 V -8.84 H 0"
         style="fill:#0d318f;fill-opacity:1;fill-rule:nonzero;stroke:none"
         id="path3669" />
    </g>
    <g
       id="g3671"
       transform="matrix(2.0630969,0,0,-2.0630969,1156.6044,464.17091)">
      <path
         d="m 0,0 c 1.19,0 1.87,0.63 1.87,1.564 v 0.035 c 0,1.041 -0.72,1.58 -1.91,1.58 H -2.46 V 0 Z m -4.91,5.384 h 5.07 c 1.41,0 2.5,-0.396 3.23,-1.125 C 4.02,3.646 4.35,2.769 4.35,1.724 V 1.695 c 0,-1.793 -0.97,-2.918 -2.38,-3.442 L 4.68,-5.706 H 1.83 l -2.38,3.549 h -1.91 v -3.549 h -2.45"
         style="fill:#0d318f;fill-opacity:1;fill-rule:nonzero;stroke:none"
         id="path3673" />
    </g>
    <path
       d="m 1169.3749,475.94294 h 5.034 v -22.88387 h -5.034 z"
       style="fill:#0d318f;fill-opacity:1;fill-rule:nonzero;stroke:none;stroke-width:2.063097"
       id="path3675" />
    <g
       id="g3677"
       transform="matrix(2.0630969,0,0,-2.0630969,1177.6273,464.56703)">
      <path
         d="m 0,0 v 0.031 c 0,3.155 2.38,5.739 5.79,5.739 2.09,0 3.34,-0.7 4.37,-1.717 L 8.61,2.264 C 7.75,3.041 6.88,3.52 5.77,3.52 3.9,3.52 2.56,1.967 2.56,0.061 v -0.03 c 0,-1.898 1.31,-3.486 3.21,-3.486 1.27,0 2.04,0.508 2.92,1.299 l 1.55,-1.568 C 9.1,-4.947 7.83,-5.707 5.69,-5.707 2.43,-5.707 0,-3.187 0,0"
         style="fill:#0d318f;fill-opacity:1;fill-rule:nonzero;stroke:none"
         id="path3679" />
    </g>
    <g
       id="g3681"
       transform="matrix(2.0630969,0,0,-2.0630969,981.3649,448.83383)">
      <path
         d="M 0,0 3.51,2.629 7.01,0 3.51,-2.628 Z M 22.78,1.313 15.77,6.57 14.02,5.256 10.51,7.885 12.26,9.199 5.26,14.455 3.51,13.143 1.76,14.455 -5.25,9.199 -3.5,7.885 -7,5.256 -8.76,6.57 -15.77,1.313 -14.01,0 l -1.76,-1.313 7.01,-5.258 1.76,1.31 3.5,-2.627 -1.75,-1.312 7.01,-5.258 1.75,1.318 1.75,-1.318 7,5.258 -1.75,1.312 3.51,2.627 1.75,-1.31 7.01,5.258 L 21.03,0"
         style="fill:#0d318f;fill-opacity:1;fill-rule:nonzero;stroke:none"
         id="path3683" />
    </g>
  </g>
  <g
     transform="matrix(2.0630969,0,0,-2.0630969,-87.84398,1195.983)"
     id="g3701" />
  <g
     transform="matrix(2.0630969,0,0,-2.0630969,-82.851289,1238.3693)"
     id="g3721" />
  <g
     transform="matrix(2.0630969,0,0,-2.0630969,-86.909391,1259.3634)"
     id="g3725" />
  <g
     transform="matrix(2.0630969,0,0,-2.0630969,-82.851289,1329.2219)"
     id="g3761" />
</svg>
